<svg width="650pt" height="616" viewBox="0 0 650 462" xmlns="http://www.w3.org/2000/svg"><g class="graph"><path fill="#fff" stroke="transparent" d="M0 462V0h650v462H0z"/><path fill="#0078ba" stroke="transparent" d="M14 70V10h507v60H14z"/><text x="20" y="-410" font-family="DejaVu Sans" font-weight="bold" font-size="36" fill="#fff" transform="translate(4 458)">Israel’s Political System</text><g class="node"><path fill="#fff" stroke="transparent" d="M172 236H4v50h168v-50z"/><path fill="#fff" stroke="transparent" d="M12 282v-42h152v42H12z"/><path fill="none" stroke="#000" d="M12 261v-21h152v21H12z"/><text x="36" y="-203" font-family="DejaVu Sans" font-size="14" transform="translate(4 458)">The President</text><path fill="#0078ba" stroke="transparent" d="M12 282v-21h152v21H12z"/><path fill="none" stroke="#000" d="M12 282v-21h152v21H12z"/><text x="11" y="-183" font-family="DejaVu Sans" font-weight="bold" font-size="14" fill="#fff" transform="translate(4 458)"> State Figurehead </text></g><g class="node"><path fill="#fff" stroke="transparent" d="M415 76H254v50h161V76z"/><path fill="#fff" stroke="transparent" d="M262 122V80h145v42H262z"/><path fill="none" stroke="#000" d="M263 101V80h145v21H263z"/><text x="262" y="-363" font-family="DejaVu Sans" font-size="14" transform="translate(4 458)"> The Prime Minister </text><path fill="#0078ba" stroke="transparent" d="M263 122v-21h145v21H263z"/><path fill="none" stroke="#000" d="M263 122v-21h145v21H263z"/><text x="288" y="-343" font-family="DejaVu Sans" font-weight="bold" font-size="14" fill="#fff" transform="translate(4 458)"> Executive </text></g><g class="edge"><path fill="none" stroke="#0078ba" stroke-width="3" d="M172 266h93V132"/><path fill="#0078ba" stroke="#0078ba" stroke-width="3" d="m263 132 2-5 2 5h-4z"/><text text-anchor="middle" x="232" y="-203" font-family="DejaVu Sans" font-size="12" fill="#0078ba" transform="translate(4 458)">appoints  </text></g><g class="node"><path fill="#fff" stroke="transparent" d="M646 236H498v50h148v-50z"/><path fill="#fff" stroke="transparent" d="M506 282v-42h132v42H506z"/><path fill="none" stroke="#000" d="M506 261v-21h132v21H506z"/><text x="505" y="-203" font-family="DejaVu Sans" font-size="14" transform="translate(4 458)"> The Government </text><path fill="#0078ba" stroke="transparent" d="M506 282v-21h132v21H506z"/><path fill="none" stroke="#000" d="M506 282v-21h132v21H506z"/><text x="525" y="-183" font-family="DejaVu Sans" font-weight="bold" font-size="14" fill="#fff" transform="translate(4 458)"> Executive </text></g><g class="edge"><path fill="none" stroke="#0078ba" stroke-width="3" d="M404 126v120h88"/><path fill="#0078ba" stroke="#0078ba" stroke-width="3" d="m492 245 5 1-5 2v-3z"/><text text-anchor="middle" x="379" y="-218" font-family="DejaVu Sans" font-size="12" fill="#0078ba" transform="translate(4 458)">forms  </text></g><g class="node"><path fill="#fff" stroke="transparent" d="M393 322H276v50h117v-50z"/><path fill="#fff" stroke="transparent" d="M284 368v-42h101v42H284z"/><path fill="none" stroke="#000" d="M285 347v-21h101v21H285z"/><text x="284" y="-117" font-family="DejaVu Sans" font-size="14" transform="translate(4 458)"> The Knesset </text><path fill="#0078ba" stroke="transparent" d="M285 368v-21h101v21H285z"/><path fill="none" stroke="#000" d="M285 368v-21h101v21H285z"/><text x="284" y="-97" font-family="DejaVu Sans" font-weight="bold" font-size="14" fill="#fff" transform="translate(4 458)"> Legislative </text></g><g class="edge"><path fill="none" stroke="#0078ba" stroke-width="3" d="M305 322v-46H177"/><path fill="#0078ba" stroke="#0078ba" stroke-width="3" d="m177 278-5-2 5-1v3z"/><text text-anchor="middle" x="245" y="-139" font-family="DejaVu Sans" font-size="12" fill="#0078ba" transform="translate(4 458)">elects for 7 years  </text></g><g class="edge"><path fill="none" stroke="#0078ba" stroke-width="3" d="M335 322V132"/><path fill="#0078ba" stroke="#0078ba" stroke-width="3" d="m333 132 2-5 1 5h-3z"/><text text-anchor="middle" x="309" y="-221" font-family="DejaVu Sans" font-size="12" fill="#0078ba" transform="translate(4 458)">elects  </text></g><g class="edge"><path fill="none" stroke="#0078ba" stroke-width="3" d="M364 322v-66h128"/><path fill="#0078ba" stroke="#0078ba" stroke-width="3" d="m492 255 5 1-5 2v-3z"/><text text-anchor="middle" x="397" y="-139" font-family="DejaVu Sans" font-size="12" fill="#0078ba" transform="translate(4 458)">  supervises </text></g><g class="node"><path fill="#fff" stroke="transparent" d="M391 408H278v50h113v-50z"/><path fill="#fff" stroke="transparent" d="M286 454v-42h97v42h-97z"/><path fill="none" stroke="#000" d="M287 433v-21h97v21h-97z"/><text x="289" y="-31" font-family="DejaVu Sans" font-size="14" transform="translate(4 458)"> The People </text><path fill="#0078ba" stroke="transparent" d="M287 454v-21h97v21h-97z"/><path fill="none" stroke="#000" d="M287 454v-21h97v21h-97z"/><text x="286" y="-11" font-family="DejaVu Sans" font-weight="bold" font-size="14" fill="#fff" transform="translate(4 458)"> Electorate </text></g><g class="edge"><path fill="none" stroke="#0078ba" stroke-width="3" d="M335 408v-30"/><path fill="#0078ba" stroke="#0078ba" stroke-width="3" d="m333 378 2-5 1 5h-3z"/><text text-anchor="middle" x="303" y="-53" font-family="DejaVu Sans" font-size="12" fill="#0078ba" transform="translate(4 458)">vote for  </text></g></g></svg>